<svg width="36" height="36" viewBox="0 0 36 36" fill="none" xmlns="http://www.w3.org/2000/svg">
<path d="M32.4 18.3332C32.4 17.0999 32.2999 16.1999 32.0833 15.2666H18V20.8332H26.2666C26.1 22.2166 25.2 24.2999 23.2 25.6998L23.1719 25.8862L27.6248 29.3358L27.9333 29.3666C30.7666 26.7499 32.4 22.8999 32.4 18.3332Z" fill="#4285F4"/>
<path d="M18 33.0001C22.05 33.0001 25.4499 31.6667 27.9333 29.3668L23.2 25.7C21.9333 26.5834 20.2333 27.2 18 27.2C14.0334 27.2 10.6667 24.5835 9.46662 20.9668L9.29071 20.9817L4.66053 24.5651L4.59998 24.7334C7.06662 29.6334 12.1333 33.0001 18 33.0001Z" fill="#34A853"/>
<path d="M9.4666 20.9666C9.14994 20.0333 8.96668 19.0332 8.96668 18C8.96668 16.9666 9.14994 15.9666 9.44994 15.0333L9.44156 14.8345L4.75335 11.1936L4.59996 11.2666C3.58334 13.2999 3 15.5833 3 18C3 20.4166 3.58334 22.6999 4.59996 24.7332L9.4666 20.9666Z" fill="#FBBC05"/>
<path d="M18 8.79996C20.8166 8.79996 22.7166 10.0166 23.8 11.0334L28.0333 6.9C25.4334 4.48334 22.05 3 18 3C12.1333 3 7.06662 6.36664 4.59998 11.2666L9.44996 15.0333C10.6667 11.4167 14.0334 8.79996 18 8.79996Z" fill="#EB4335"/>
</svg>
